<svg xmlns="http://www.w3.org/2000/svg" width="103.336" height="138.63" viewBox="-0.5 -0.5 103.336 138.63"><g fill-rule="none" stroke-miterlimit="10" data-paper-data="{&quot;isPaintingLayer&quot;:true}" font-family="none" font-size="none" font-weight="none" style="mix-blend-mode:normal" text-anchor="none"><path fill="#fff" fill-rule="evenodd" d="m56.146 30.268 15.153 2.4 13.974 5.1 11.477 10.3 3.593 8.3v9.3l-3.593 11.7-8.783 8.6-11.078 5.4-9.502 1.3-18.743-.8-8.384-2.5-9.78-3.9-6.588-4.8-5.59-6.9-2.096-8.1.5-8.6 4.192-9.2 5.59-7.4 9.081-6.6 7.785-2.6z"/><path fill="#fcb322" fill-rule="evenodd" d="m93.456 51.768 2.995 14.7-1.198 5.9-1.597 1.3-3.693-1.701-4.09-5-1.299 8.4-3.593 7.3-6.887 5.7-1.896 2.6 1.796 1.2-.599 6.8 1.298 1.5 3.793 5.7 3.094 3.2 4.89 7.9.798 3-1.098 3.4-3.194 1.7h-4.99l-3.493-1-7.107-7.1-3.63-4.4-1.04 3.3-.898 13.2-2.695 4.6-5.789 2.3s-3.193-.7-3.593-1.1c-.399-.4-2.794-3.3-2.794-3.3l-.47-5.1v-7.1l1.07-5.4-7.287.6-5.09.7 1.896 3 1.797 4.8.2 3.6-1.797 2.1-4.392.8-5.888-2.6-3.992-4.8-2.895-5.9-1.497 2-3.892 8.1-4.192 3.6-3.693.7-3.892-1.9s-1.497-3.7-1.597-4c-.1-.3 0-3.1 0-3.1l2.395-5 1.896-4.1.7-4.5.897-6.7 1.896-4.9-1.597-1.8-4.092-4.7-2.095-5.8v-4.9l1.297-4.1 2.595-2.28h2.79l1.901 1.08-1.902 5.3s.105 4.8.005 5.1c-.1.3 1.298 3.2 1.298 3.2l4.192 3 4.69-2.1 2.096.7 4.192 1.8 13.773 1.402 9.382-.401 4.692-1.2-5.789-4-4.592-4.2-4.89-7.9-.4-4.4-8.982 6.3-1.996-1.7-1.198-4.6V58.604l1.198-4.036 3.293-2.35 15.071 1.75 7.116-3 7.107-.5h7.735l7.885 3.499 8.084-2 9.681-1.5Z"/><path fill="#71cbd2" fill-rule="evenodd" d="m39.761 81.068 8.084 6.7 4.292 3.999-6.388.582-2.495 1.019s-1.198 9.499-1.298 9.799c-.1.3 1.198 7.2 1.198 7.2l2.595 4.4-10.679.5-4.49-6.6-.9-5 .3-4.8 1.297-4 .7-2.2-9.083-1.4-4.292-2.9-1.497-3v-3s1.05-3.447 3.193-3.9c2.144-.451 17.766.9 17.766.9Z"/><path fill="#ef463c" fill-rule="evenodd" d="m54.794 1.168 4.33.5 2.794 2.7 1.837 4.2-1.538 4.2-4.718 3.3-5.76.6-4.293-3-.898-5 1.197-3.9 3.423-3z"/><path fill="#2a3d98" fill-rule="nonzero" d="M75.147 93.072c-.113 2.02-.238 3.775-.292 5.53-.015.472.04 1.064.31 1.409 2.714 3.488 5.494 6.924 8.226 10.398 1.595 2.029 3.12 4.11 3.981 6.59.364 1.05.966 2.06 1.112 3.136.363 2.697-1.355 4.437-3.207 5.969-1.706 1.412-3.855 1.368-5.85 1.084-1.922-.273-3.968-.522-5.512-1.968-2.233-2.088-4.9-3.707-6.512-6.472-.839-1.44-2.077-2.647-3.134-3.96l-.398.01c-.058 1.155-.158 2.31-.166 3.464-.016 2.295.33 4.642-.035 6.876-.7 4.303-1.38 8.775-5.826 11.154-3.08 1.648-6.19 1.946-9.252-.082-2.322-1.537-3.332-3.885-3.459-6.502-.135-2.775.016-5.578.255-8.35.148-1.707.694-3.38 1.145-5.448-1.915.094-3.83.153-5.745.273-1.487.093-2.985-.36-4.46-.183 2.718 4.137 6.527 9.75 1.796 14.09-.629.579-1.603.953-2.468 1.072-4.143.573-7.71-.524-10.388-3.927-.744-.945-1.605-1.806-2.279-2.798-.96-1.413-1.797-2.911-2.775-4.517-.333.52-.73 1.049-1.034 1.629-1.944 3.707-4.125 7.23-7.662 9.654-3.395 2.326-8.735 1.373-10.62-2.975-1.335-3.077-1.217-6.188.594-9.178.948-1.565 1.65-3.28 2.463-4.925 1.253-2.532 1.345-5.268 1.365-8.006.021-2.85.97-5.413 2.3-7.87.157-.291.421-.527.534-.664-1.012-1.031-2.104-1.997-3.015-3.113-1.03-1.263-2.102-2.562-2.797-4.02C1.02 87.68-.08 84.693.153 81.618c.253-3.303 1.257-6.505 3.68-9.032 1.036-1.08 4.036-1.435 5.622-.291 1.268.915 1.582 2.599.885 4.48-.567 1.527-1.152 3.07-1.479 4.66-.684 3.318 1.338 6.905 4.478 8.113.355.137.888-.02 1.274-.19.383-.168.658-.567 1.025-.792 1.468-.903 1.435-.874.691-2.547-.865-1.944-.708-3.531.306-5.355.205-.37 2.86-3.46 3.356-2.84-2.137-2.667-3.616-5.115-4.352-8.52-.575-2.656-.545-5.586-.623-8.3-.082-2.852 1.105-5.635 2.076-8.258.756-2.046 1.755-3.997 2.872-5.867 3.58-5.998 8.613-10.488 14.693-13.792 3.218-1.748 6.692-2.708 10.403-2.913 3.927-.218 7.841-.693 11.964-1.074-.149-.982-.374-2.198-.509-3.423a250.158 250.158 0 0 1-.64-6.691c-.069-.837-.51-.935-1.234-.925-5.097.069-8.132-2.451-8.923-7.596-.405-2.632.485-5.573 2.25-7.57 3.813-4.318 12.197-3.787 14.907 1.483 1.55 3.014 1.86 6.229.391 9.374-.674 1.443-2.019 2.346-3.566 2.827-1.255.39-1.823.23-1.774 1.692.05 1.44.658 2.816.8 4.246.113 1.14.14 2.327.287 3.458.11.845-.05 1.795.237 2.61.39 1.114.936.944 1.994.996 2.304.116 4.563.64 6.838.984 4.155.627 8.314 2.14 12.322 3.387 1.2.374 2.3 1.246 3.454 1.79 1.326.626 2.684 1.199 3.911 2.013 1.61 1.066 2.794 2.465 4.196 3.722 6.472 5.8 11.44 13.918 10.173 22.915-.45 3.205-.943 6.462-2.209 9.463-1.238 2.938-2.845 5.277-4.859 7.737-3.267 3.99-8.068 7.304-12.763 9.396-2.11.94-4.469 1.322-6.718 1.952-.245.067-.487.147-.442.133M30.065 77.886c-3.2 1.07-3.963-.177-5.25-2.351-.702-1.183-.986-2.71-1.124-4.113-.545-5.504-.172-11.002.645-16.45.185-1.232 1.105-2.431 1.927-3.451.322-.4 1.305-.354 1.988-.357 2.356-.01 4.715-.014 7.067.106 1.336.069 2.677.25 3.991.5 1.161.219 2.564.045 3.652.478.827.33.857 1.118 1.766.742.755-.311 1.53-1.324 2.272-1.772 1.682-1.017 3.578-1.634 5.501-1.992 3.685-.687 8.18-.67 11.9-.185 3.093.402 6.39 1.515 9.063 3.182.446.277 1.098.6 1.526.472 3.138-.945 6.206-2.146 9.373-2.967 2.047-.53 4.271-.95 6.331-.706 2.67.313 3.948 2.503 4.4 5.037.656 3.674 1.081 7.394 1.858 11.04.512 2.403.137 4.686-.26 6.989-.303 1.754-1.36 2.59-3.094 2.444-1.036-.088-2.196-.343-3.022-.923-1.558-1.096-2.915-2.481-4.248-3.65-.27 1.805-.45 3.819-.906 5.769-.385 1.65-.776 3.45-1.724 4.785-1.568 2.212-3.123 4.504-5.376 6.17-1.899 1.406-3.706 2.937-5.695 4.523 1.607-.285 3.151-.363 4.554-.85a54.397 54.397 0 0 0 6.788-2.86c1.6-.81 3.064-1.913 4.505-2.996 2.355-1.77 4.477-3.675 6.101-6.17 1.472-2.26 3.198-4.69 4.123-7.236.935-2.572 1.13-5.347 1.023-8.063-.114-2.9-.837-5.79-1.444-8.65-.95-4.48-3.518-8.005-7.038-10.777-1.335-1.052-2.526-2.588-3.967-3.45-.956-.571-2.092-1.066-3.102-1.57-2.182-1.09-4.349-2.42-6.657-3.25-2.318-.833-4.769-1.486-7.159-1.99-2.782-.584-5.21-1.277-8.058-1.277-5.49 0-10.89.032-16.36.26-3.549.15-6.912 1.084-10.049 2.639-5.42 2.685-9.896 6.545-13.115 11.716-1.112 1.786-1.889 3.756-3.016 5.514-2.866 4.47-3.234 11.283-2.068 16.396 1.058 4.642 3.7 8.419 7.34 11.512 1.276 1.085 2.495 2.193 3.99 3.009 1.887 1.033 3.572 2.488 5.53 3.335 2.828 1.225 5.803 1.946 8.72 2.915 2.182.724 3.855 1.693 6.231 1.128-1.077-.436-2.156-.94-3.124-1.544-1.558-.971-2.96-2.178-4.219-3.511-1.097-1.161-2.415-2.358-3.3-3.672-.21-.311-.368-1.087-.593-1.277-.529-.448-1.59-.142-2.32-.118-1.16.039-2.117-.093-3.227-.32-.664-.135-2.65.082-2.952-.758-.132-.367.172-.892.302-1.405m7.97-5.026c.206.929.591 1.83.854 2.76.354 1.25.641 2.455 1.371 3.55 1.64 2.457 3.654 4.596 5.987 6.435 2.907 2.29 6.332 3.945 9.97 4.858 2.174.545 4.315 1.262 6.685 1.039 5.948-.563 10.857-3.048 15.016-7.292 3.018-3.08 5.422-6.457 5.895-10.854.307-2.848.717-5.862-.788-8.437-1.3-2.223-3.105-4.168-4.805-6.133-.927-1.072-2.006-2.071-3.182-2.854-3.783-2.517-8.535-4.46-13.087-4.67-3.506-.161-7.087-.304-10.485.653-1.167.329-2.42.702-3.445 1.35-2.048 1.295-4.5 2.687-5.708 4.878-1.537 2.789-3.036 5.677-3.744 8.808-.308 1.362-.48 2.82-.646 4.199-.07.587-.012 1.154.111 1.71m11.59 39.668c.453.962-.362 1.964-.737 2.76-.664 1.409-.918 3.198-1.207 4.72-.65 3.423-.808 6.942-.227 10.387.07.413.251.817.438 1.196 1.297 2.626 3.275 3.78 6.303 3.365 3.476-.475 6.08-2.614 6.663-6.11.391-2.346.591-4.726.827-7.095.084-.851.213-1.77-.01-2.562-.516-1.821.053-3.53.292-5.271.047-.347.348-.73.64-.96 1.42-1.111 2.89-2.16 4.318-3.264 2.311-1.787 4.042-4.023 4.91-6.837.43-1.402.79-2.846.978-4.297.214-1.648.2-3.325.287-5.002l-13.077.552c-3.508.149-7.02-.405-10.533.15-1.185.188-2.432-.048-3.645.016-2.03.109-2.305 1.636-2.65 3.427-.427 2.214-.418 4.768-.174 7.003.264 2.42.642 4.914 1.91 7.038.526.88 1.19 1.842 2.32 1.382.703-.287 1.454-1.98 2.25-.811.05.07.09.142.123.213m-29.555 2.84c-1.295-.325-2.429-.59-3.552-.898-.777-.214-1.223-.744-.972-1.561.247-.802.892-.988 1.668-.77 1.378.387 2.745.82 4.138 1.144 3.768.875 7.576 1.425 11.693 1.38-2.643-3.141-4.164-6.587-4.374-10.42-.205-3.724-.139-7.506 2.337-10.826-1.698-.178-3.155-.408-4.618-.468-2.735-.113-5.13-1.042-7.302-2.68-.307-.232-.922-.39-1.22-.238-1.51.763-3.277 1.349-4.37 2.536-2.516 2.728-4.484 5.915-5.198 9.638-.413 2.152-.352 4.39-.662 6.566-.395 2.768-1.03 5.438-2.692 7.838-1.35 1.952-2.352 4.169-2.539 6.615-.2 2.605.535 4.836 2.975 6.14 1.818.973 3.793 1.033 5.407-.254 1.602-1.278 3.205-2.733 4.29-4.44 1.842-2.894 3.276-6.048 4.991-9.301m45.684-2.23c1.465 2.01 2.694 3.832 4.063 5.542 3.181 3.975 6.995 6.687 12.448 6.008 1.94-.241 3.136-1.466 3.931-3.028.646-1.27.28-2.751-.34-3.95-.68-1.313-1.324-2.987-2.294-4.106-1.434-1.654-3.073-3.185-4.32-5.034-.51-.757-1.33-1.298-1.927-2.006-1.093-1.295-2.127-2.641-3.367-4.194-1.26 4.75-4.084 8.099-8.194 10.769M41.974 54.75c-.53-.168-.935-.38-1.355-.415-3.77-.324-7.54-.674-11.318-.896-1.862-.11-2.656.606-2.979 2.514-1.006 5.934-1.25 11.877-.045 17.823.42 2.069 1.328 2.587 3.223 1.554 2.934-1.6 4.981-4.128 6.654-6.955.448-.756.622-1.677.904-2.528.823-2.484 1.518-5.02 2.502-7.437.524-1.286 1.542-2.371 2.413-3.66m35.516-.336c1.331 1.484 2.548 2.709 3.611 4.055 1.576 1.998 3.035 4.088 4.56 6.128 1.62 2.17 3.217 4.36 4.92 6.463.401.495 1.166.714 1.79 1.002 1.081.495 1.78.022 2.101-1.014.661-2.127.997-4.283.352-6.49-.096-.328-.123-.677-.185-1.015-.598-3.273-1.218-6.543-1.786-9.822-.336-1.942-1.709-2.583-3.64-2.311a52.836 52.836 0 0 0-5.835 1.154c-1.954.505-3.857 1.204-5.888 1.85m-44.415 74.229c.261.013.525.063.781.036 1.617-.176 3.424-.363 4.108-2.005.632-1.518.686-3.315-.347-4.81-1.158-1.675-2.437-3.268-3.695-4.873-.122-.154-.467-.165-.713-.186-3.3-.271-6.606-.492-9.902-.821-1.054-.106-1.662.352-1.704 1.235-.038.785.166 1.716.595 2.362 1.321 1.986 2.703 3.949 4.244 5.765 1.705 2.008 3.88 3.297 6.633 3.297M54.337 15.758c-.305-1.622-.037-1.868 1.51-1.493 1.865.453 4.49-.203 5.087-1.446.802-1.671 1.561-3.411.87-5.347-.348-.975-.487-2.156-1.133-2.868-3.116-3.437-9.45-2.768-11.675 1.144-1.328 2.336-1.696 4.55-.5 7.035 1.193 2.484 3.297 2.995 5.841 2.975M42.794 91.916l.032-.425c.008-.11-5.496-1.821-6.019-2.022a52.65 52.65 0 0 1-6.089-2.773 40.043 40.043 0 0 1-5.62-3.648 16.827 16.827 0 0 1-2.152-2.013c-.374-.413-1.248-1.653-1.852-1.68-.708-.03-2.014 1.317-2.372 1.843-.527.777-.666 1.957-.742 2.885-.195 2.386 2.933 5.922 5.695 6.253 1.851.222 3.707.407 5.564.576 1.554.143 3.111.239 4.668.353zm-30.763-.803c-.134-.104-.237-.175-.33-.26-1.345-1.186-3.158-2.13-3.928-3.616-1.398-2.7-1.819-5.743-.674-8.773.377-.997.79-1.983 1.115-2.997.363-1.135.002-1.647-1.188-1.614-.537.015-1.174.174-1.583.498-2.468 1.959-3.4 4.692-3.212 7.694.118 1.865.651 3.76 1.317 5.52 1.138 3.005 2.526 5.915 5.842 7.166zm30.232 3c-2.84-.223-5.685-.447-8.529-.664-.168-.012-.43-.024-.498.07-.894 1.279-2.01 2.462-2.015 4.32 3.224-.224 6.354-.418 9.48-.69.346-.03.81-.424.952-.763.293-.7.407-1.473.61-2.273m-10.046 15.47c1.204 1.808 2.141 3.26 3.14 4.668.148.207.595.297.897.282 2.25-.11 4.5-.258 6.748-.402.062-.004.118-.102.215-.191-.396-.937-.746-1.914-1.226-2.823-.187-.351-.645-.733-1.018-.778-1.877-.23-3.767-.352-5.653-.51-.928-.076-1.857-.147-3.103-.246m9.106-1.44c-.143-1.104-.204-1.92-.376-2.71-.059-.27-.378-.67-.606-.69-3.197-.274-6.399-.493-9.876-.745.221.98.4 1.549.47 2.13.13 1.09.63 1.52 1.791 1.546 2.783.06 5.562.292 8.597.47m-.367-5.88c0-.685-.088-1.262.018-1.8.188-.955-.014-1.165-1.052-1.094a53.872 53.872 0 0 1-6.467.029c-2.375-.126-3.027.487-2.596 3.182 1.57 0 3.194.039 4.817-.011 1.683-.053 3.364-.191 5.28-.306M30.708 77.925c2.18.133 4.1.249 6.096.369l-.712-5.163z"/><g fill="#2a3d98" fill-rule="evenodd"><path d="M61.871 66.258c-1.388.602-2.172.552-2.65-.644-.397-.987-.03-1.442.86-1.555 1.53-.192 3.073-.416 4.602-.364.63.02 1.356.624 1.785 1.165.153.194-.333 1.098-.727 1.459-.28.257-.898.147-1.609.229.535.586.905 1.276 1.477 1.564 1.375.69 2.808 1.326 4.287 1.737 2.104.586 4.104-1.504 4.6-3.588.168-.711.146-1.675 1.3-1.48.76.129 1.807 2.018 1.418 2.618-1.235 1.909-2.292 3.922-4.793 4.665-2.269.673-4.15-.014-6.048-.997-.686-.356-1.303-.847-2.048-1.34-1.264 1.922-3.072 2.896-5.196 3.323-2.036.409-3.928-.15-5.726-1.03-1.01-.494-3.925-2.726-3.022-4.128.898-1.393 2.63 1.314 3.267 1.783 1.158.852 2.612 1.125 4.021 1.163 1.601.042 3.115-.611 3.983-2.017.365-.592.153-1.54.22-2.563M68.218 58.335c.454-.304 1.011-.222 1.462.63 1.366 2.582-2.298 3.518-2.293 1.143.001-.72.358-1.456.831-1.773M55.77 61.81c-1.49-.34-1.14-2.742.142-3.147 1.66-.524 2.327 2.566.466 3.115a1.192 1.192 0 0 1-.609.033"/></g></g></svg>