<svg xmlns="http://www.w3.org/2000/svg" width="114.452" height="135.582" viewBox="-0.5 -0.5 114.452 135.582"><g fill-rule="none" stroke-miterlimit="10" data-paper-data="{&quot;isPaintingLayer&quot;:true}" font-family="none" font-size="none" font-weight="none" style="mix-blend-mode:normal" text-anchor="none"><g fill-rule="evenodd"><path fill="#fff" d="M63.406 75.37c-.3-.076-12.675.824-12.675.824l-11.1 4.125-6.45 3.675-3.225 4.275-2.625 3.45-5.85-1.725-8.025-4.95-6.75-6.675-3.75-6.675-1.65-7.95.6-6.825 2.325-7.05 3.6-6.075 6.075-5.4 8.1-4.275 7.8-1.65 7.8-1.2 12.3-.225 9 1.575 7.95 2.775 8.475 5.775 5.936 7.8 2.86 7.125v6.3l-2.271 9.225-3.45 4.35s-14.7-.525-15-.6"/><path fill="#fcb322" d="m63.38 76.57 10.4 7.7 8.878 2.6 4.423 1.2 6.7.9 4-1.5 4.8-2.6 2.8-2.7 2.7-.8 2.7 1.2 1.1 3.4-3.6 5.247-6.6 4.452-5.9 3.2 1.8 20.1-1.4 8.3-2.7 3.5-5.5.1-3.4-1.1-2.4-3.8-2.4 5-4.5 1.9-4.3-.4-3.4-1.3s-1.5-5.1-1.6-5.4c-.1-.3-.7-7.8-.7-7.8l.6-5.6h-5l-8.2-.7 1.7 7.5-2.4 9.6-3.6 2.7-4.9.4-2.2-2-4.3 2.6-5.6-.4-4.4-3.6-1.6-4.9-.3-6.8-.1-9.5 1.4-8.7 1.925-7.9 1.35-3.225-5.775-3.825-2.85-4.5-1.275-6.6-1.05-2.175-4.65 3-2.85-1.95-.975-8.925v-11.4l16.125-.075 2.925.825 2.325-1.425s10.35-.75 10.575-.825c.225-.075 9.45 1.275 9.675 1.275.225 0 5.625 1.425 5.625 1.425s14.25-1.8 14.475-1.8c.225 0 3.975.9 3.975.9v15.45l-1.275 3.6s-4.875-.375-5.1-.6c-.225-.225-4.35-4.5-4.35-4.5l-2.1 9Z"/><path fill="#71cbd2" d="M83.38 81.07v2.9l-2.192 4.8-5.107 1.6-5.8.847h-6.8l-3.6.502-1.2 4.45-.7 4.4 1.2 4.366 1.1 4.334 2 2.9-7.7-.3-1.8-1.9-2.1-5.6s-.5-3.8-.5-4.1c0-.3.9-5.8.9-5.8l1.2-3.252-3.5-1.048-4.8-2.1-1.8-4.3.536-2.5 1.264-2.7 3.7-1.8 14.1-1.2s12.1.6 12.5.5c.4-.1 5.8 1.9 5.8 1.9Z"/><path fill="#ef463c" d="m51.106 2.47 2.7 3.3v4.8s-2.25 4.2-2.475 4.274c-.225.075-5.025 1.875-5.025 1.875l-4.875-.375-2.625-2.55-1.2-3.9.9-3.825 3.15-3.675 6.675-.975Z"/></g><g fill="#2a3d98"><path fill-rule="nonzero" d="M82.36 128.995c-.607 2.127-2.186 3.26-3.887 4.47-1.977 1.41-4.015 1.09-6.106 1.077-.458-.002-.918-.186-1.374-.175-2.18.051-3.941-1.082-4.674-2.843-.962-2.313-1.922-4.668-2.193-7.304-.33-3.214-.497-6.374-.17-9.58.03-.294-.448-.905-.717-.92-2.051-.125-4.11-.124-6.163-.19-.744-.026-1.486-.13-2.373-.213.077.007.373 2.62.408 2.874.328 2.38.178 4.81-.251 7.167-.407 2.24-.94 4.377-2.3 6.227-.7.952-1.255 1.876-2.23 2.594-2.07 1.523-5.07 1.417-7.452.797-.915-.237-1.258-.695-1.716-1.483-1.347.875-2.801 1.582-4.38 1.98-.882.221-1.773.188-2.686.188-2.09 0-3.834-.462-5.451-1.815-1.41-1.179-2.482-2.725-3.265-4.378a20.084 20.084 0 0 1-1.29-3.657c-.37-1.462-.316-2.962-.333-4.46-.013-1.105 0-2.209 0-3.313 0-3.609.095-7.219.389-10.815.077-.945.12-1.875.354-2.78.246-.958.186-1.97.42-2.935.252-1.038.39-2.086.593-3.138.146-.762.283-1.537.547-2.27.076-.213.474-.808.364-1.002-.113-.197-.831-.254-1.04-.298-.36-.077-.75-.122-1.112-.212-.86-.21-1.77-.72-2.585-1.078-.966-.425-1.918-.888-2.81-1.456-2.335-1.484-4.665-2.996-6.868-4.668-2.904-2.205-5.146-5.044-7.143-8.079-.25-.379-.702-.63-.933-1.016-1.81-3.023-3.187-6.207-3.67-9.742-.425-3.133-.357-6.88.367-9.969.436-1.86.738-3.785 1.427-5.565.683-1.762 1.438-3.488 2.346-5.147.838-1.53 1.648-2.642 2.909-3.908a33.387 33.387 0 0 1 8.586-6.202c3.97-2.007 8.22-3.406 12.55-4.392a84.203 84.203 0 0 1 6.456-1.194c1.977-.293 3.948-.205 5.916-.442.916-.11 1.906-.245 2.848-.332.095-2.162.42-4.26.4-6.444-.011-1.088-.11-2.174-.114-3.26-.005-1.312-.797-2.284-2.404-2.728-2.613-.723-5.466-4.2-5.576-7.414-.08-2.352 1.079-3.772 2.19-5.428 1.79-2.664 4.63-3.818 7.478-4.077 3.11-.282 6.255.677 8.244 3.491 1.135 1.605 1.368 3.532 1.047 5.484-.211 1.29-.341 2.611-.73 3.848-.635 2.023-2.14 3.41-3.973 4.331-1.09.547-2.35.752-3.74 1.174v11.067c4.16-.187 8.113.241 11.949 1.322 2.415.681 4.742 1.694 7.072 2.646 1.896.776 3.828 1.533 5.578 2.576a21.742 21.742 0 0 1 4.37 3.45c2.004 2.051 4.19 4.083 5.594 6.528 2.383 4.15 4.83 8.457 4.74 13.462-.047 2.661-.67 5.321-1.143 7.962-.542 3.024-2.117 5.612-3.732 8.163-.165.26-.52.4-.886.667 1.768.941 3.488 1.79 4.4 3.703.926 1.945-.021 3.792 0 5.732 2.412.664 4.806 1.537 7.277 1.942 2.505.412 4.995-.29 7.117-1.642 2.05-1.307 3.826-3.037 5.828-4.43.75-.52 1.783-.679 2.713-.88.614-.136 1.274-.05 1.913-.064 2.634-.06 4.357 1.86 4.156 4.486-.217 2.817-1.873 4.835-3.695 6.704-2.697 2.765-6.02 4.661-9.488 6.293-.753.355-1.581.551-2.592.893.213 2.272.388 4.585.652 6.887.635 5.555 1.28 11.116.377 16.691a37.644 37.644 0 0 1-1.554 6.144c-.897 2.621-4.424 4.514-7.397 4.425-3.133-.095-5.148-1.996-7.378-4.107M64.495 74.208c.233.025.525.07.819.084 3.33.17 6.72.011 9.97.61 2.332.431 3.292-.908 4.168-2.215 1.769-2.638 2.588-5.7 3.208-8.819.759-3.823.304-7.476-1.113-11.06-.45-1.135-.637-2.422-1.284-3.42-1.28-1.975-2.662-3.92-4.25-5.65-1.658-1.807-3.52-3.458-5.45-4.979-3.58-2.82-7.971-4.038-12.196-5.319-4.79-1.45-9.83-1.857-14.886-1.392-2.611.241-5.245.263-7.85.558-4.343.493-8.966 1.005-13.017 2.724-1.611.683-3.114 1.42-4.701 2.175-1.748.833-3.54 1.673-5.1 2.83-.66.49-1.214 1.094-1.802 1.663-1.095 1.062-1.894 2.307-2.86 3.471-1.111 1.34-2.084 2.802-2.81 4.388-1.535 3.36-2.66 6.686-3.006 10.452-.605 6.568 1.84 13.895 7.12 19.222 2.413 2.436 4.777 4.846 7.748 6.668 3.138 1.924 6.22 3.821 9.939 4.14.494-.69.97-1.356 1.566-2.185-3.597-2.002-6.747-4.595-8.278-8.499-.533-1.36-.926-2.75-1.38-4.138-.353-1.083-.715-2.049-.744-3.185-.377.21-.58.618-.921.875a4.45 4.45 0 0 1-1.224.633 5.678 5.678 0 0 1-2.621.264c-1.684-.237-2.83-1.525-3.518-2.999-.713-1.524-1.064-3.28-1.255-4.969-.218-1.935-.076-3.91-.091-5.869-.01-1.319-.097-2.636-.141-3.953-.066-1.927-.55-4.712 1.187-6.112.362-.29.884-.559 1.322-.718 1.638-.595 3.722.125 5.41.186 1.867.068 3.749-.239 5.612-.148.908.043 1.8.076 2.693.163.992.096 1.977-.085 2.973.101.5.094 1.437.414 1.73.82.394-.33.868-.588 1.313-.867.55-.345 1.336-.417 1.962-.558.666-.15 1.334-.355 2.016-.429 3.819-.41 7.664-1.045 11.52-.304 1.848.354 3.704.676 5.542 1.08 1.284.283 2.467.825 3.737 1.221.363.112.826.25 1.203.262.462.015.164.045.515-.174.706-.439 1.189-.697 2.129-.79.57-.059 1.095-.158 1.68-.158.882 0 1.637-.05 2.494-.142.997-.107 2.002-.249 3.005-.267 1.795-.033 3.54-.185 5.342-.189.999-.002 2.112.023 2.976.443 1.835.894 2.153 2.88 2.335 4.598.315 2.97.332 5.981.297 8.972-.02 1.811-.2 3.661-.631 5.414-.33 1.34-.841 2.87-2.661 3.015-.64.052-1.29-.042-1.936-.079-2.216-.124-4.03-.968-5.243-2.912-.251-.404-.577-.76-.987-1.289-.553 2.377-1.05 4.498-1.575 6.755m30.593 25.86c-2.356 0-4.313.075-6.262-.025-1.126-.058-2.513.05-3.55-.48-.746-.382-1.941-1.382-1.542-2.31.327-.765 1.848-.468 2.449-.3 3.545.99 7.09.683 10.538-.298 1.866-.532 3.615-1.54 5.35-2.46 3.46-1.835 6.526-4.148 8.512-7.64.528-.927.726-1.846.166-2.887-.437-.815-.978-1.556-1.894-1.396a7.35 7.35 0 0 0-2.777 1.118c-2.08 1.41-3.98 3.102-6.117 4.407-2.182 1.332-4.473 2.483-7.222 2.376-1.487-.057-3.146-.076-4.547-.628-1.08-.426-2.196-.486-3.273-.888-.343-.128-.898-.733-1.173-.777-.601-.095-.724.533-1.11.928-2.823 2.897-7.425 2.625-11.143 3.047-1.421.162-2.831.453-4.256.54-1.752.106-3.526-.045-5.266.135-.66.07-1.488.613-1.825 1.185-.475.806-.678 1.823-.8 2.776-.351 2.762-.417 5.618.358 8.318.563 1.96 2.098 6.382 4.593 6.566.637.047 1.196-.35 1.804.032.507.32.653.946.676 1.505.078 1.816-.676 3.598-.563 5.448.224 3.63.333 7.262 2.02 10.567.508.995 1.343 2.06 2.305 2.537 1.733.861 3.744.718 5.587.267 2.378-.583 3.435-2.554 4.119-4.71.859-2.706.089-5.465.059-8.187-.026-2.264-.57-4.503-.266-6.822.102-.78.3-1.54 1.17-1.697.79-.142 1.824.062 2.078.9.47 1.543.087 3.366.225 4.96.093 1.064.098 2.105.15 3.17.097 1.896.564 3.75.663 5.645.133 2.505 2.144 4.251 4.48 4.921 1.578.453 3.596.525 4.695-.887 1.215-1.562 2.11-3.65 2.389-5.612.574-4.059 1-8.16.352-12.31-.568-3.615-.775-7.287-1.152-11.035M59.594 74.598c.829.106 1.722.232 2.229-.554.24-.373.31-.87.438-1.288.219-.717.514-1.415.663-2.153.315-1.548.575-3.123.575-4.708 0-.696.027-1.469-.302-2.082-.324-.606-.887-1.044-1.245-1.626-.572-.93-1.093-1.893-1.645-2.834-1.041-1.775-1.67-4.223-3.545-5.328-1.061-.625-1.94-1.338-3.14-1.687-1.707-.495-3.416-.879-5.146-1.272-1.973-.449-3.941-.62-5.96-.62-1.687 0-3.358.135-5.043.194a45.572 45.572 0 0 0-3.175.237c-1.578.165-3.545.706-4.327 2.26-.767 1.524-1.348 3.135-2.2 4.62-1.4 2.433-2.955 4.777-4.41 7.18-.937 1.547-2.436 3.392-2.49 5.243-.095 3.22-.04 5.838 1.466 8.786 1.104 2.163 2.787 5.05 5.025 6.2.558.287 1.2.546 1.815.68.937.206 1.447.203 2.072-.57.618-.767 1.57-1.346 2.422-1.816 1.158-.639 2.22-1.346 3.522-1.695 1.206-.323 2.367-.867 3.616-1.006.689-.077.727.008.974-.636.28-.732.567-1.279 1.21-1.807 2.094-1.72 5.033-2.983 7.745-3.248a84.493 84.493 0 0 1 4.802-.322c1.112-.046 2.23-.228 3.342-.213.224.003.466.033.712.065m-7.587 36.183c.046-.122.09-.244.138-.366-3.982-6.087-3.134-12.477-1.1-18.77.048-.15-2.74-.949-3.001-1.033-.454-.144-.903-.255-1.353-.374-.45-.117-.781-.41-1.206-.588-.804-.337-1.658-.803-2.355-1.392-.65-.547-1.421-1.32-1.854-2.049-.805-1.354-.241-3.474-2.302-2.976-2.491.602-4.852 1.808-6.527 3.773-.588.69-1.021 1.488-1.588 2.186-2.167 2.667-3.155 5.972-3.694 9.315-.27 1.673-.441 3.361-.643 5.042-.1.825-.341 1.721-.338 2.55.004.838.083 1.68.056 2.533-.07 2.137-.207 4.271-.212 6.41-.003 1.792-.057 3.65.097 5.422.139 1.591.195 3.288.804 4.717 1.3 3.052 3.713 5.137 6.802 6.372 1.216.486 3.426-.26 4.44-.962.59-.409 1.06-1.38 1.419-2.003.476-.824.74-1.742.828-2.687.08-.882.152-1.749.152-2.64 0-.714-.022-1.416.076-2.12.193-1.397.095-2.814.112-4.233.02-1.62.04-3.24.04-4.86 0-.682-.142-1.365-.238-2.209-.351-.16-.906-.308-1.327-.63-.556-.427-1.226-.933-.756-1.793.42-.77 1.092-.71 1.752-.332.768.441 1.456 1.13 2.276 1.354 3.147.86 6.332 1.574 9.502 2.343M72.28 89.77c-2.048-1.825-1.904-4.13-1.985-6.389-.09-2.49 1.332-4.31 2.837-6.235-2.581-.209-4.96-.58-7.33-.535-1.818.036-3.62.305-5.473.245-2.461-.08-4.928-.05-7.38.168-2.157.195-4.187.197-6.126 1.333-.75.44-1.536.745-2.14 1.362-.596.611-1.31 1.423-1.627 2.231-.285.724-.163 1.598-.163 2.364 0 .991.234 1.414.917 2.157a5.556 5.556 0 0 0 1.948 1.384c.695.291 1.233.857 1.935 1.163.669.292 1.41.332 2.079.592a9.373 9.373 0 0 0 2.363.574c2.746.322 5.507.153 8.245.153 3.246 0 6.493-.146 9.74-.249.688-.023 1.37-.197 2.16-.318M11.263 51.802c-.104 1.041-.268 1.964-.27 2.887-.002 1.382.305 2.788.13 4.14-.384 3.006.214 5.948.367 8.915.047.917.54 1.842.956 2.704.51 1.057 2.478 1.634 3.303.861 1.23-1.152 2.449-2.397 3.333-3.814 1.1-1.765 1.735-3.815 2.786-5.616 1.732-2.967 3.636-5.835 5.5-8.799-.558-.369-.827-.7-1.111-.713-4.963-.21-9.927-.382-14.994-.565m48.022 1.132c.367.817.543 1.34.82 1.801 1.269 2.126 2.429 4.336 3.89 6.325 1.889 2.571 3.96 5.017 6.082 7.405 1.347 1.514 3.582.795 4.13-1.126.68-2.382.847-4.803.818-7.256-.02-1.56.02-3.123-.052-4.68-.032-.674-.246-1.347-.438-2.004-.387-1.326-1.096-1.73-3.385-1.63-2.543.112-5.083.351-7.62.587-1.337.125-2.665.36-4.245.578m-15.813 58.131-.324-.067c.025 2.884.339 5.68.3 8.563-.04 3.087-.218 6.194-.945 9.206-.214.885.175 1.332.996 1.6 3.286 1.073 6.88-.726 7.902-4.025 1.314-4.244 1.359-8.536.32-12.838-.077-.322-.418-.759-.707-.822a537.818 537.818 0 0 0-7.542-1.617M38.59 10.063c-.313 1.57.694 2.85 1.863 3.727 2.06 1.547 4.644 1.436 7.099 1.59.239.013.5-.079.727-.178 2.659-1.165 4.656-5.227 4.018-8.15-.58-2.653-3.502-4.66-6.191-4.117-1.132.23-2.193.796-3.297 1.18-2.563.89-4.158 3.063-4.22 5.948m43.643 72.938c.175-2.074-1.083-4.369-3.205-4.564-2.207-.203-4.357.108-5.732 1.971-1.111 1.503-1.46 3.25-.946 5.057.627 2.212 3.345 4.09 5.167 3.571 2.884-.822 4.449-2.863 4.716-6.035m-28.615 9.13a.662.662 0 0 0-.138.01c-1.132.288-1.237 2.304-1.437 3.246-.138.657-.234 1.102-.333 1.746-.162 1.064.48.765 1.314.777.305.005 3.762.438 3.772.38l.982-5.739c-.031.181-3.36-.416-4.16-.42m3.21 8.098c-.792-.509-2.612-.223-3.402-.297-.411-.039-1.108-.106-1.5 0-.608.163-.48.148-.526.816-.07.98-.045 2.265.223 3.197.43 1.495 4.796.922 5.94.822-.77-1.319.25-2.912-.442-4.23a.817.817 0 0 0-.292-.308m-4.437 7.54c.253.787.84 1.507 1.338 2.104.86 1.033 1.052 1.12 2.417 1.234.667.056 1.339.034 2.01.034.726 0 1.459.02 2.18-.008-.664-.86-1.241-1.586-1.793-2.549-.393-.687-.713-1.675-1.542-1.91-1.365-.387-3.27-.214-4.68-.142-.1.425-.057.84.07 1.237"/><path fill-rule="evenodd" d="M84.039 102.793c.092.344.116.687.059.933-.134.571-.492 1.07-1.095 1.19-.965.193-1.89-1.128-1.81-2.007.062-.689.735-1.2 1.344-1.408.75-.255 1.297.524 1.502 1.292"/></g></g></svg>